<?xml version="1.0" encoding="UTF-8" standalone="no"?>
<!DOCTYPE svg PUBLIC "-//W3C//DTD SVG 1.1//EN"
 "http://www.w3.org/Graphics/SVG/1.1/DTD/svg11.dtd">
<!-- Generated by graphviz version 2.38.0 (20140413.2041)
 -->
<!-- Title: ast Pages: 1 -->
<svg width="616pt" height="476pt"
 viewBox="0.00 0.00 616.00 476.00" xmlns="http://www.w3.org/2000/svg" xmlns:xlink="http://www.w3.org/1999/xlink">
<g id="graph0" class="graph" transform="scale(1 1) rotate(0) translate(4 472)">
<title>ast</title>
<polygon fill="white" stroke="none" points="-4,4 -4,-472 612.004,-472 612.004,4 -4,4"/>
<!-- addition1 -->
<g id="node1" class="node"><title>addition1</title>
<ellipse fill="none" stroke="black" stroke-width="2" cx="304.002" cy="-450" rx="32.4023" ry="18"/>
<text text-anchor="middle" x="304.002" y="-446.3" font-family="Times,serif" font-size="14.00">addition</text>
</g>
<!-- addition11 -->
<g id="node2" class="node"><title>addition11</title>
<ellipse fill="none" stroke="black" stroke-width="2" cx="212.002" cy="-378" rx="32.4023" ry="18"/>
<text text-anchor="middle" x="212.002" y="-374.3" font-family="Times,serif" font-size="14.00">addition</text>
</g>
<!-- addition1&#45;&gt;addition11 -->
<g id="edge1" class="edge"><title>addition1&#45;&gt;addition11</title>
<path fill="none" stroke="black" stroke-width="2" d="M285.384,-434.834C271.954,-424.615 253.627,-410.671 238.648,-399.274"/>
<polygon fill="black" stroke="black" stroke-width="2" points="240.355,-396.175 230.278,-392.906 236.117,-401.746 240.355,-396.175"/>
</g>
<!-- plus -->
<g id="node13" class="node"><title>plus</title>
<ellipse fill="none" stroke="black" stroke-width="2" cx="304.002" cy="-18" rx="27" ry="18"/>
<text text-anchor="middle" x="304.002" y="-14.3" font-family="Times,serif" font-size="14.00">+</text>
</g>
<!-- addition1&#45;&gt;plus -->
<g id="edge12" class="edge"><title>addition1&#45;&gt;plus</title>
<path fill="none" stroke="black" stroke-width="2" d="M304.002,-431.951C304.002,-405.292 304.002,-352.115 304.002,-307 304.002,-307 304.002,-307 304.002,-161 304.002,-120.996 304.002,-74.6528 304.002,-46.0798"/>
<polygon fill="black" stroke="black" stroke-width="2" points="307.502,-46.0492 304.002,-36.0493 300.502,-46.0493 307.502,-46.0492"/>
</g>
<!-- addition12 -->
<g id="node14" class="node"><title>addition12</title>
<ellipse fill="none" stroke="black" stroke-width="2" cx="396.002" cy="-378" rx="32.4023" ry="18"/>
<text text-anchor="middle" x="396.002" y="-374.3" font-family="Times,serif" font-size="14.00">addition</text>
</g>
<!-- addition1&#45;&gt;addition12 -->
<g id="edge13" class="edge"><title>addition1&#45;&gt;addition12</title>
<path fill="none" stroke="black" stroke-width="2" d="M322.619,-434.834C336.05,-424.615 354.377,-410.671 369.356,-399.274"/>
<polygon fill="black" stroke="black" stroke-width="2" points="371.887,-401.746 377.726,-392.906 367.648,-396.175 371.887,-401.746"/>
</g>
<!-- multiplication11 -->
<g id="node3" class="node"><title>multiplication11</title>
<ellipse fill="none" stroke="black" stroke-width="2" cx="180.002" cy="-306" rx="55.0038" ry="18"/>
<text text-anchor="middle" x="180.002" y="-302.3" font-family="Times,serif" font-size="14.00">multiplication</text>
</g>
<!-- addition11&#45;&gt;multiplication11 -->
<g id="edge2" class="edge"><title>addition11&#45;&gt;multiplication11</title>
<path fill="none" stroke="black" stroke-width="2" d="M204.418,-360.411C200.687,-352.249 196.103,-342.22 191.917,-333.065"/>
<polygon fill="black" stroke="black" stroke-width="2" points="195.094,-331.596 187.753,-323.956 188.728,-334.506 195.094,-331.596"/>
</g>
<!-- multiplication111 -->
<g id="node4" class="node"><title>multiplication111</title>
<ellipse fill="none" stroke="black" stroke-width="2" cx="55.0019" cy="-234" rx="55.0038" ry="18"/>
<text text-anchor="middle" x="55.0019" y="-230.3" font-family="Times,serif" font-size="14.00">multiplication</text>
</g>
<!-- multiplication11&#45;&gt;multiplication111 -->
<g id="edge3" class="edge"><title>multiplication11&#45;&gt;multiplication111</title>
<path fill="none" stroke="black" stroke-width="2" d="M153.493,-290.155C135.097,-279.853 110.391,-266.018 90.3262,-254.782"/>
<polygon fill="black" stroke="black" stroke-width="2" points="91.9082,-251.656 81.473,-249.824 88.4879,-257.764 91.9082,-251.656"/>
</g>
<!-- times1 -->
<g id="node8" class="node"><title>times1</title>
<ellipse fill="none" stroke="black" stroke-width="2" cx="138.002" cy="-18" rx="27" ry="18"/>
<text text-anchor="middle" x="138.002" y="-14.3" font-family="Times,serif" font-size="14.00">*</text>
</g>
<!-- multiplication11&#45;&gt;times1 -->
<g id="edge4" class="edge"><title>multiplication11&#45;&gt;times1</title>
<path fill="none" stroke="black" stroke-width="2" d="M170.841,-287.841C165.871,-277.704 160.121,-264.454 157.002,-252 138.822,-179.412 136.974,-90.5227 137.362,-46.4649"/>
<polygon fill="black" stroke="black" stroke-width="2" points="140.865,-46.3136 137.501,-36.267 133.865,-46.2185 140.865,-46.3136"/>
</g>
<!-- multiplication112 -->
<g id="node9" class="node"><title>multiplication112</title>
<ellipse fill="none" stroke="black" stroke-width="2" cx="221.002" cy="-234" rx="55.0038" ry="18"/>
<text text-anchor="middle" x="221.002" y="-230.3" font-family="Times,serif" font-size="14.00">multiplication</text>
</g>
<!-- multiplication11&#45;&gt;multiplication112 -->
<g id="edge5" class="edge"><title>multiplication11&#45;&gt;multiplication112</title>
<path fill="none" stroke="black" stroke-width="2" d="M189.927,-288.055C194.762,-279.801 200.677,-269.701 206.044,-260.538"/>
<polygon fill="black" stroke="black" stroke-width="2" points="209.134,-262.187 211.168,-251.789 203.094,-258.649 209.134,-262.187"/>
</g>
<!-- factor111 -->
<g id="node5" class="node"><title>factor111</title>
<ellipse fill="none" stroke="black" stroke-width="2" cx="55.0019" cy="-162" rx="27" ry="18"/>
<text text-anchor="middle" x="55.0019" y="-158.3" font-family="Times,serif" font-size="14.00">factor</text>
</g>
<!-- multiplication111&#45;&gt;factor111 -->
<g id="edge6" class="edge"><title>multiplication111&#45;&gt;factor111</title>
<path fill="none" stroke="black" stroke-width="2" d="M55.0019,-215.697C55.0019,-207.983 55.0019,-198.712 55.0019,-190.112"/>
<polygon fill="black" stroke="black" stroke-width="2" points="58.502,-190.104 55.0019,-180.104 51.502,-190.104 58.502,-190.104"/>
</g>
<!-- number111 -->
<g id="node6" class="node"><title>number111</title>
<ellipse fill="none" stroke="black" stroke-width="2" cx="55.0019" cy="-90" rx="30.6034" ry="18"/>
<text text-anchor="middle" x="55.0019" y="-86.3" font-family="Times,serif" font-size="14.00">number</text>
</g>
<!-- factor111&#45;&gt;number111 -->
<g id="edge7" class="edge"><title>factor111&#45;&gt;number111</title>
<path fill="none" stroke="black" stroke-width="2" d="M55.0019,-143.697C55.0019,-135.983 55.0019,-126.712 55.0019,-118.112"/>
<polygon fill="black" stroke="black" stroke-width="2" points="58.502,-118.104 55.0019,-108.104 51.502,-118.104 58.502,-118.104"/>
</g>
<!-- lit1 -->
<g id="node7" class="node"><title>lit1</title>
<ellipse fill="none" stroke="black" stroke-width="2" cx="55.0019" cy="-18" rx="27" ry="18"/>
<text text-anchor="middle" x="55.0019" y="-14.3" font-family="Times,serif" font-size="14.00">1</text>
</g>
<!-- number111&#45;&gt;lit1 -->
<g id="edge8" class="edge"><title>number111&#45;&gt;lit1</title>
<path fill="none" stroke="black" stroke-width="2" d="M55.0019,-71.6966C55.0019,-63.9827 55.0019,-54.7125 55.0019,-46.1124"/>
<polygon fill="black" stroke="black" stroke-width="2" points="58.502,-46.1043 55.0019,-36.1043 51.502,-46.1044 58.502,-46.1043"/>
</g>
<!-- factor112 -->
<g id="node10" class="node"><title>factor112</title>
<ellipse fill="none" stroke="black" stroke-width="2" cx="221.002" cy="-162" rx="27" ry="18"/>
<text text-anchor="middle" x="221.002" y="-158.3" font-family="Times,serif" font-size="14.00">factor</text>
</g>
<!-- multiplication112&#45;&gt;factor112 -->
<g id="edge9" class="edge"><title>multiplication112&#45;&gt;factor112</title>
<path fill="none" stroke="black" stroke-width="2" d="M221.002,-215.697C221.002,-207.983 221.002,-198.712 221.002,-190.112"/>
<polygon fill="black" stroke="black" stroke-width="2" points="224.502,-190.104 221.002,-180.104 217.502,-190.104 224.502,-190.104"/>
</g>
<!-- number112 -->
<g id="node11" class="node"><title>number112</title>
<ellipse fill="none" stroke="black" stroke-width="2" cx="221.002" cy="-90" rx="30.6034" ry="18"/>
<text text-anchor="middle" x="221.002" y="-86.3" font-family="Times,serif" font-size="14.00">number</text>
</g>
<!-- factor112&#45;&gt;number112 -->
<g id="edge10" class="edge"><title>factor112&#45;&gt;number112</title>
<path fill="none" stroke="black" stroke-width="2" d="M221.002,-143.697C221.002,-135.983 221.002,-126.712 221.002,-118.112"/>
<polygon fill="black" stroke="black" stroke-width="2" points="224.502,-118.104 221.002,-108.104 217.502,-118.104 224.502,-118.104"/>
</g>
<!-- lit2 -->
<g id="node12" class="node"><title>lit2</title>
<ellipse fill="none" stroke="black" stroke-width="2" cx="221.002" cy="-18" rx="27" ry="18"/>
<text text-anchor="middle" x="221.002" y="-14.3" font-family="Times,serif" font-size="14.00">1</text>
</g>
<!-- number112&#45;&gt;lit2 -->
<g id="edge11" class="edge"><title>number112&#45;&gt;lit2</title>
<path fill="none" stroke="black" stroke-width="2" d="M221.002,-71.6966C221.002,-63.9827 221.002,-54.7125 221.002,-46.1124"/>
<polygon fill="black" stroke="black" stroke-width="2" points="224.502,-46.1043 221.002,-36.1043 217.502,-46.1044 224.502,-46.1043"/>
</g>
<!-- multiplication12 -->
<g id="node15" class="node"><title>multiplication12</title>
<ellipse fill="none" stroke="black" stroke-width="2" cx="428.002" cy="-306" rx="55.0038" ry="18"/>
<text text-anchor="middle" x="428.002" y="-302.3" font-family="Times,serif" font-size="14.00">multiplication</text>
</g>
<!-- addition12&#45;&gt;multiplication12 -->
<g id="edge14" class="edge"><title>addition12&#45;&gt;multiplication12</title>
<path fill="none" stroke="black" stroke-width="2" d="M403.585,-360.411C407.317,-352.249 411.901,-342.22 416.086,-333.065"/>
<polygon fill="black" stroke="black" stroke-width="2" points="419.276,-334.506 420.25,-323.956 412.91,-331.596 419.276,-334.506"/>
</g>
<!-- multiplication121 -->
<g id="node16" class="node"><title>multiplication121</title>
<ellipse fill="none" stroke="black" stroke-width="2" cx="387.002" cy="-234" rx="55.0038" ry="18"/>
<text text-anchor="middle" x="387.002" y="-230.3" font-family="Times,serif" font-size="14.00">multiplication</text>
</g>
<!-- multiplication12&#45;&gt;multiplication121 -->
<g id="edge15" class="edge"><title>multiplication12&#45;&gt;multiplication121</title>
<path fill="none" stroke="black" stroke-width="2" d="M418.077,-288.055C413.242,-279.801 407.327,-269.701 401.96,-260.538"/>
<polygon fill="black" stroke="black" stroke-width="2" points="404.91,-258.649 396.835,-251.789 398.869,-262.187 404.91,-258.649"/>
</g>
<!-- times2 -->
<g id="node20" class="node"><title>times2</title>
<ellipse fill="none" stroke="black" stroke-width="2" cx="470.002" cy="-18" rx="27" ry="18"/>
<text text-anchor="middle" x="470.002" y="-14.3" font-family="Times,serif" font-size="14.00">*</text>
</g>
<!-- multiplication12&#45;&gt;times2 -->
<g id="edge16" class="edge"><title>multiplication12&#45;&gt;times2</title>
<path fill="none" stroke="black" stroke-width="2" d="M437.163,-287.841C442.133,-277.704 447.883,-264.454 451.002,-252 469.181,-179.412 471.03,-90.5227 470.641,-46.4649"/>
<polygon fill="black" stroke="black" stroke-width="2" points="474.139,-46.2185 470.503,-36.267 467.139,-46.3136 474.139,-46.2185"/>
</g>
<!-- multiplication122 -->
<g id="node21" class="node"><title>multiplication122</title>
<ellipse fill="none" stroke="black" stroke-width="2" cx="553.002" cy="-234" rx="55.0038" ry="18"/>
<text text-anchor="middle" x="553.002" y="-230.3" font-family="Times,serif" font-size="14.00">multiplication</text>
</g>
<!-- multiplication12&#45;&gt;multiplication122 -->
<g id="edge17" class="edge"><title>multiplication12&#45;&gt;multiplication122</title>
<path fill="none" stroke="black" stroke-width="2" d="M454.511,-290.155C472.907,-279.853 497.612,-266.018 517.678,-254.782"/>
<polygon fill="black" stroke="black" stroke-width="2" points="519.516,-257.764 526.531,-249.824 516.096,-251.656 519.516,-257.764"/>
</g>
<!-- factor121 -->
<g id="node17" class="node"><title>factor121</title>
<ellipse fill="none" stroke="black" stroke-width="2" cx="387.002" cy="-162" rx="27" ry="18"/>
<text text-anchor="middle" x="387.002" y="-158.3" font-family="Times,serif" font-size="14.00">factor</text>
</g>
<!-- multiplication121&#45;&gt;factor121 -->
<g id="edge18" class="edge"><title>multiplication121&#45;&gt;factor121</title>
<path fill="none" stroke="black" stroke-width="2" d="M387.002,-215.697C387.002,-207.983 387.002,-198.712 387.002,-190.112"/>
<polygon fill="black" stroke="black" stroke-width="2" points="390.502,-190.104 387.002,-180.104 383.502,-190.104 390.502,-190.104"/>
</g>
<!-- number121 -->
<g id="node18" class="node"><title>number121</title>
<ellipse fill="none" stroke="black" stroke-width="2" cx="387.002" cy="-90" rx="30.6034" ry="18"/>
<text text-anchor="middle" x="387.002" y="-86.3" font-family="Times,serif" font-size="14.00">number</text>
</g>
<!-- factor121&#45;&gt;number121 -->
<g id="edge19" class="edge"><title>factor121&#45;&gt;number121</title>
<path fill="none" stroke="black" stroke-width="2" d="M387.002,-143.697C387.002,-135.983 387.002,-126.712 387.002,-118.112"/>
<polygon fill="black" stroke="black" stroke-width="2" points="390.502,-118.104 387.002,-108.104 383.502,-118.104 390.502,-118.104"/>
</g>
<!-- lit3 -->
<g id="node19" class="node"><title>lit3</title>
<ellipse fill="none" stroke="black" stroke-width="2" cx="387.002" cy="-18" rx="27" ry="18"/>
<text text-anchor="middle" x="387.002" y="-14.3" font-family="Times,serif" font-size="14.00">3</text>
</g>
<!-- number121&#45;&gt;lit3 -->
<g id="edge20" class="edge"><title>number121&#45;&gt;lit3</title>
<path fill="none" stroke="black" stroke-width="2" d="M387.002,-71.6966C387.002,-63.9827 387.002,-54.7125 387.002,-46.1124"/>
<polygon fill="black" stroke="black" stroke-width="2" points="390.502,-46.1043 387.002,-36.1043 383.502,-46.1044 390.502,-46.1043"/>
</g>
<!-- factor122 -->
<g id="node22" class="node"><title>factor122</title>
<ellipse fill="none" stroke="black" stroke-width="2" cx="553.002" cy="-162" rx="27" ry="18"/>
<text text-anchor="middle" x="553.002" y="-158.3" font-family="Times,serif" font-size="14.00">factor</text>
</g>
<!-- multiplication122&#45;&gt;factor122 -->
<g id="edge21" class="edge"><title>multiplication122&#45;&gt;factor122</title>
<path fill="none" stroke="black" stroke-width="2" d="M553.002,-215.697C553.002,-207.983 553.002,-198.712 553.002,-190.112"/>
<polygon fill="black" stroke="black" stroke-width="2" points="556.502,-190.104 553.002,-180.104 549.502,-190.104 556.502,-190.104"/>
</g>
<!-- number122 -->
<g id="node23" class="node"><title>number122</title>
<ellipse fill="none" stroke="black" stroke-width="2" cx="553.002" cy="-90" rx="30.6034" ry="18"/>
<text text-anchor="middle" x="553.002" y="-86.3" font-family="Times,serif" font-size="14.00">number</text>
</g>
<!-- factor122&#45;&gt;number122 -->
<g id="edge22" class="edge"><title>factor122&#45;&gt;number122</title>
<path fill="none" stroke="black" stroke-width="2" d="M553.002,-143.697C553.002,-135.983 553.002,-126.712 553.002,-118.112"/>
<polygon fill="black" stroke="black" stroke-width="2" points="556.502,-118.104 553.002,-108.104 549.502,-118.104 556.502,-118.104"/>
</g>
<!-- lit4 -->
<g id="node24" class="node"><title>lit4</title>
<ellipse fill="none" stroke="black" stroke-width="2" cx="553.002" cy="-18" rx="27" ry="18"/>
<text text-anchor="middle" x="553.002" y="-14.3" font-family="Times,serif" font-size="14.00">4</text>
</g>
<!-- number122&#45;&gt;lit4 -->
<g id="edge23" class="edge"><title>number122&#45;&gt;lit4</title>
<path fill="none" stroke="black" stroke-width="2" d="M553.002,-71.6966C553.002,-63.9827 553.002,-54.7125 553.002,-46.1124"/>
<polygon fill="black" stroke="black" stroke-width="2" points="556.502,-46.1043 553.002,-36.1043 549.502,-46.1044 556.502,-46.1043"/>
</g>
</g>
</svg>
