<?xml version="1.0" encoding="UTF-8" standalone="no"?>
<!DOCTYPE svg PUBLIC "-//W3C//DTD SVG 1.1//EN"
 "http://www.w3.org/Graphics/SVG/1.1/DTD/svg11.dtd">
<!-- Generated by graphviz version 2.38.0 (20140413.2041)
 -->
<!-- Title: token_category_hierarchy Pages: 1 -->
<svg width="496pt" height="456pt"
 viewBox="0.00 0.00 496.00 456.00" xmlns="http://www.w3.org/2000/svg" xmlns:xlink="http://www.w3.org/1999/xlink">
<g id="graph0" class="graph" transform="scale(1 1) rotate(0) translate(4 452)">
<title>token_category_hierarchy</title>
<polygon fill="white" stroke="none" points="-4,4 -4,-452 492,-452 492,4 -4,4"/>
<!-- constant -->
<g id="node1" class="node"><title>constant</title>
<path fill="none" stroke="black" stroke-width="2" d="M270.5,-440C270.5,-440 231.5,-440 231.5,-440 225.5,-440 219.5,-434 219.5,-428 219.5,-428 219.5,-416 219.5,-416 219.5,-410 225.5,-404 231.5,-404 231.5,-404 270.5,-404 270.5,-404 276.5,-404 282.5,-410 282.5,-416 282.5,-416 282.5,-428 282.5,-428 282.5,-434 276.5,-440 270.5,-440"/>
<text text-anchor="middle" x="251" y="-418.3" font-family="Times,serif" font-size="14.00">constant</text>
</g>
<!-- string -->
<g id="node2" class="node"><title>string</title>
<path fill="none" stroke="black" stroke-width="2" d="M105,-368C105,-368 75,-368 75,-368 69,-368 63,-362 63,-356 63,-356 63,-344 63,-344 63,-338 69,-332 75,-332 75,-332 105,-332 105,-332 111,-332 117,-338 117,-344 117,-344 117,-356 117,-356 117,-362 111,-368 105,-368"/>
<text text-anchor="middle" x="90" y="-346.3" font-family="Times,serif" font-size="14.00">string</text>
</g>
<!-- constant&#45;&gt;string -->
<g id="edge1" class="edge"><title>constant&#45;&gt;string</title>
<path fill="none" stroke="black" stroke-width="2" d="M219.253,-407.953C195.878,-398.254 163.133,-384.48 126.474,-368.136"/>
<polygon fill="black" stroke="black" stroke-width="2" points="127.63,-364.819 117.073,-363.927 124.769,-371.208 127.63,-364.819"/>
</g>
<!-- character -->
<g id="node3" class="node"><title>character</title>
<path fill="none" stroke="black" stroke-width="2" d="M193,-368C193,-368 147,-368 147,-368 141,-368 135,-362 135,-356 135,-356 135,-344 135,-344 135,-338 141,-332 147,-332 147,-332 193,-332 193,-332 199,-332 205,-338 205,-344 205,-344 205,-356 205,-356 205,-362 199,-368 193,-368"/>
<text text-anchor="middle" x="170" y="-346.3" font-family="Times,serif" font-size="14.00">character</text>
</g>
<!-- constant&#45;&gt;character -->
<g id="edge2" class="edge"><title>constant&#45;&gt;character</title>
<path fill="none" stroke="black" stroke-width="2" d="M230.978,-403.697C220.874,-394.965 208.464,-384.24 197.482,-374.75"/>
<polygon fill="black" stroke="black" stroke-width="2" points="199.647,-371.995 189.792,-368.104 195.07,-377.291 199.647,-371.995"/>
</g>
<!-- number -->
<g id="node4" class="node"><title>number</title>
<path fill="none" stroke="black" stroke-width="2" d="M267,-368C267,-368 235,-368 235,-368 229,-368 223,-362 223,-356 223,-356 223,-344 223,-344 223,-338 229,-332 235,-332 235,-332 267,-332 267,-332 273,-332 279,-338 279,-344 279,-344 279,-356 279,-356 279,-362 273,-368 267,-368"/>
<text text-anchor="middle" x="251" y="-346.3" font-family="Times,serif" font-size="14.00">number</text>
</g>
<!-- constant&#45;&gt;number -->
<g id="edge3" class="edge"><title>constant&#45;&gt;number</title>
<path fill="none" stroke="black" stroke-width="2" d="M251,-403.697C251,-395.983 251,-386.712 251,-378.112"/>
<polygon fill="black" stroke="black" stroke-width="2" points="254.5,-378.104 251,-368.104 247.5,-378.104 254.5,-378.104"/>
</g>
<!-- boolean -->
<g id="node5" class="node"><title>boolean</title>
<path fill="none" stroke="black" stroke-width="2" d="M341,-368C341,-368 309,-368 309,-368 303,-368 297,-362 297,-356 297,-356 297,-344 297,-344 297,-338 303,-332 309,-332 309,-332 341,-332 341,-332 347,-332 353,-338 353,-344 353,-344 353,-356 353,-356 353,-362 347,-368 341,-368"/>
<text text-anchor="middle" x="325" y="-346.3" font-family="Times,serif" font-size="14.00">boolean</text>
</g>
<!-- constant&#45;&gt;boolean -->
<g id="edge4" class="edge"><title>constant&#45;&gt;boolean</title>
<path fill="none" stroke="black" stroke-width="2" d="M269.292,-403.697C278.433,-395.05 289.64,-384.449 299.6,-375.027"/>
<polygon fill="black" stroke="black" stroke-width="2" points="302.059,-377.519 306.918,-368.104 297.248,-372.434 302.059,-377.519"/>
</g>
<!-- float -->
<g id="node6" class="node"><title>float</title>
<path fill="none" stroke="black" stroke-width="2" d="M413,-368C413,-368 383,-368 383,-368 377,-368 371,-362 371,-356 371,-356 371,-344 371,-344 371,-338 377,-332 383,-332 383,-332 413,-332 413,-332 419,-332 425,-338 425,-344 425,-344 425,-356 425,-356 425,-362 419,-368 413,-368"/>
<text text-anchor="middle" x="398" y="-346.3" font-family="Times,serif" font-size="14.00">float</text>
</g>
<!-- constant&#45;&gt;float -->
<g id="edge5" class="edge"><title>constant&#45;&gt;float</title>
<path fill="none" stroke="black" stroke-width="2" d="M282.535,-405.983C305.772,-394.918 337.424,-379.846 361.712,-368.28"/>
<polygon fill="black" stroke="black" stroke-width="2" points="363.434,-371.337 370.958,-363.877 360.424,-365.017 363.434,-371.337"/>
</g>
<!-- statement -->
<g id="node7" class="node"><title>statement</title>
<path fill="none" stroke="black" stroke-width="2" d="M267.5,-308C267.5,-308 218.5,-308 218.5,-308 212.5,-308 206.5,-302 206.5,-296 206.5,-296 206.5,-284 206.5,-284 206.5,-278 212.5,-272 218.5,-272 218.5,-272 267.5,-272 267.5,-272 273.5,-272 279.5,-278 279.5,-284 279.5,-284 279.5,-296 279.5,-296 279.5,-302 273.5,-308 267.5,-308"/>
<text text-anchor="middle" x="243" y="-286.3" font-family="Times,serif" font-size="14.00">statement</text>
</g>
<!-- conditional -->
<g id="node8" class="node"><title>conditional</title>
<path fill="none" stroke="black" stroke-width="2" d="M76,-236C76,-236 20,-236 20,-236 14,-236 8,-230 8,-224 8,-224 8,-212 8,-212 8,-206 14,-200 20,-200 20,-200 76,-200 76,-200 82,-200 88,-206 88,-212 88,-212 88,-224 88,-224 88,-230 82,-236 76,-236"/>
<text text-anchor="middle" x="48" y="-214.3" font-family="Times,serif" font-size="14.00">conditional</text>
</g>
<!-- statement&#45;&gt;conditional -->
<g id="edge6" class="edge"><title>statement&#45;&gt;conditional</title>
<path fill="none" stroke="black" stroke-width="2" d="M206.322,-275.834C175.696,-264.84 131.739,-249.06 97.9096,-236.916"/>
<polygon fill="black" stroke="black" stroke-width="2" points="98.8046,-233.519 88.2101,-233.434 96.4395,-240.107 98.8046,-233.519"/>
</g>
<!-- repeat -->
<g id="node9" class="node"><title>repeat</title>
<path fill="none" stroke="black" stroke-width="2" d="M148,-236C148,-236 118,-236 118,-236 112,-236 106,-230 106,-224 106,-224 106,-212 106,-212 106,-206 112,-200 118,-200 118,-200 148,-200 148,-200 154,-200 160,-206 160,-212 160,-212 160,-224 160,-224 160,-230 154,-236 148,-236"/>
<text text-anchor="middle" x="133" y="-214.3" font-family="Times,serif" font-size="14.00">repeat</text>
</g>
<!-- statement&#45;&gt;repeat -->
<g id="edge7" class="edge"><title>statement&#45;&gt;repeat</title>
<path fill="none" stroke="black" stroke-width="2" d="M216.091,-271.876C201.842,-262.808 184.154,-251.552 168.764,-241.759"/>
<polygon fill="black" stroke="black" stroke-width="2" points="170.328,-238.606 160.012,-236.19 166.57,-244.511 170.328,-238.606"/>
</g>
<!-- label -->
<g id="node10" class="node"><title>label</title>
<path fill="none" stroke="black" stroke-width="2" d="M220,-236C220,-236 190,-236 190,-236 184,-236 178,-230 178,-224 178,-224 178,-212 178,-212 178,-206 184,-200 190,-200 190,-200 220,-200 220,-200 226,-200 232,-206 232,-212 232,-212 232,-224 232,-224 232,-230 226,-236 220,-236"/>
<text text-anchor="middle" x="205" y="-214.3" font-family="Times,serif" font-size="14.00">label</text>
</g>
<!-- statement&#45;&gt;label -->
<g id="edge8" class="edge"><title>statement&#45;&gt;label</title>
<path fill="none" stroke="black" stroke-width="2" d="M233.607,-271.697C229.235,-263.644 223.943,-253.894 219.105,-244.982"/>
<polygon fill="black" stroke="black" stroke-width="2" points="222.132,-243.223 214.285,-236.104 215.98,-246.563 222.132,-243.223"/>
</g>
<!-- operator -->
<g id="node11" class="node"><title>operator</title>
<path fill="none" stroke="black" stroke-width="2" d="M300,-236C300,-236 262,-236 262,-236 256,-236 250,-230 250,-224 250,-224 250,-212 250,-212 250,-206 256,-200 262,-200 262,-200 300,-200 300,-200 306,-200 312,-206 312,-212 312,-212 312,-224 312,-224 312,-230 306,-236 300,-236"/>
<text text-anchor="middle" x="281" y="-214.3" font-family="Times,serif" font-size="14.00">operator</text>
</g>
<!-- statement&#45;&gt;operator -->
<g id="edge9" class="edge"><title>statement&#45;&gt;operator</title>
<path fill="none" stroke="black" stroke-width="2" d="M252.393,-271.697C256.765,-263.644 262.057,-253.894 266.895,-244.982"/>
<polygon fill="black" stroke="black" stroke-width="2" points="270.02,-246.563 271.715,-236.104 263.868,-243.223 270.02,-246.563"/>
</g>
<!-- keyword -->
<g id="node12" class="node"><title>keyword</title>
<path fill="none" stroke="black" stroke-width="2" d="M380,-236C380,-236 342,-236 342,-236 336,-236 330,-230 330,-224 330,-224 330,-212 330,-212 330,-206 336,-200 342,-200 342,-200 380,-200 380,-200 386,-200 392,-206 392,-212 392,-212 392,-224 392,-224 392,-230 386,-236 380,-236"/>
<text text-anchor="middle" x="361" y="-214.3" font-family="Times,serif" font-size="14.00">keyword</text>
</g>
<!-- statement&#45;&gt;keyword -->
<g id="edge10" class="edge"><title>statement&#45;&gt;keyword</title>
<path fill="none" stroke="black" stroke-width="2" d="M271.866,-271.876C287.295,-262.724 306.481,-251.342 323.097,-241.485"/>
<polygon fill="black" stroke="black" stroke-width="2" points="325.208,-244.302 332.023,-236.19 321.637,-238.282 325.208,-244.302"/>
</g>
<!-- exception -->
<g id="node13" class="node"><title>exception</title>
<path fill="none" stroke="black" stroke-width="2" d="M468,-236C468,-236 422,-236 422,-236 416,-236 410,-230 410,-224 410,-224 410,-212 410,-212 410,-206 416,-200 422,-200 422,-200 468,-200 468,-200 474,-200 480,-206 480,-212 480,-212 480,-224 480,-224 480,-230 474,-236 468,-236"/>
<text text-anchor="middle" x="445" y="-214.3" font-family="Times,serif" font-size="14.00">exception</text>
</g>
<!-- statement&#45;&gt;exception -->
<g id="edge11" class="edge"><title>statement&#45;&gt;exception</title>
<path fill="none" stroke="black" stroke-width="2" d="M279.559,-277.254C309.679,-267.461 353.7,-252.886 400.578,-236.081"/>
<polygon fill="black" stroke="black" stroke-width="2" points="401.767,-239.373 409.989,-232.69 399.395,-232.787 401.767,-239.373"/>
</g>
<!-- type -->
<g id="node14" class="node"><title>type</title>
<path fill="none" stroke="black" stroke-width="2" d="M351,-176C351,-176 321,-176 321,-176 315,-176 309,-170 309,-164 309,-164 309,-152 309,-152 309,-146 315,-140 321,-140 321,-140 351,-140 351,-140 357,-140 363,-146 363,-152 363,-152 363,-164 363,-164 363,-170 357,-176 351,-176"/>
<text text-anchor="middle" x="336" y="-154.3" font-family="Times,serif" font-size="14.00">type</text>
</g>
<!-- modifier -->
<g id="node15" class="node"><title>modifier</title>
<path fill="none" stroke="black" stroke-width="2" d="M313.5,-104C313.5,-104 276.5,-104 276.5,-104 270.5,-104 264.5,-98 264.5,-92 264.5,-92 264.5,-80 264.5,-80 264.5,-74 270.5,-68 276.5,-68 276.5,-68 313.5,-68 313.5,-68 319.5,-68 325.5,-74 325.5,-80 325.5,-80 325.5,-92 325.5,-92 325.5,-98 319.5,-104 313.5,-104"/>
<text text-anchor="middle" x="295" y="-82.3" font-family="Times,serif" font-size="14.00">modifier</text>
</g>
<!-- type&#45;&gt;modifier -->
<g id="edge12" class="edge"><title>type&#45;&gt;modifier</title>
<path fill="none" stroke="black" stroke-width="2" d="M325.865,-139.697C321.148,-131.644 315.438,-121.894 310.218,-112.982"/>
<polygon fill="black" stroke="black" stroke-width="2" points="313.092,-110.964 305.018,-104.104 307.052,-114.502 313.092,-110.964"/>
</g>
<!-- structure -->
<g id="node16" class="node"><title>structure</title>
<path fill="none" stroke="black" stroke-width="2" d="M400,-104C400,-104 356,-104 356,-104 350,-104 344,-98 344,-92 344,-92 344,-80 344,-80 344,-74 350,-68 356,-68 356,-68 400,-68 400,-68 406,-68 412,-74 412,-80 412,-80 412,-92 412,-92 412,-98 406,-104 400,-104"/>
<text text-anchor="middle" x="378" y="-82.3" font-family="Times,serif" font-size="14.00">structure</text>
</g>
<!-- type&#45;&gt;structure -->
<g id="edge13" class="edge"><title>type&#45;&gt;structure</title>
<path fill="none" stroke="black" stroke-width="2" d="M346.382,-139.697C351.265,-131.559 357.187,-121.689 362.579,-112.701"/>
<polygon fill="black" stroke="black" stroke-width="2" points="365.594,-114.48 367.737,-104.104 359.591,-110.879 365.594,-114.48"/>
</g>
<!-- punctuation -->
<g id="node17" class="node"><title>punctuation</title>
<path fill="none" stroke="black" stroke-width="2" d="M200.5,-176C200.5,-176 137.5,-176 137.5,-176 131.5,-176 125.5,-170 125.5,-164 125.5,-164 125.5,-152 125.5,-152 125.5,-146 131.5,-140 137.5,-140 137.5,-140 200.5,-140 200.5,-140 206.5,-140 212.5,-146 212.5,-152 212.5,-152 212.5,-164 212.5,-164 212.5,-170 206.5,-176 200.5,-176"/>
<text text-anchor="middle" x="169" y="-154.3" font-family="Times,serif" font-size="14.00">punctuation</text>
</g>
<!-- punctuation&#45;&gt;type -->
<!-- parenthesis -->
<g id="node18" class="node"><title>parenthesis</title>
<path fill="none" stroke="black" stroke-width="2" d="M149.5,-104C149.5,-104 88.5,-104 88.5,-104 82.5,-104 76.5,-98 76.5,-92 76.5,-92 76.5,-80 76.5,-80 76.5,-74 82.5,-68 88.5,-68 88.5,-68 149.5,-68 149.5,-68 155.5,-68 161.5,-74 161.5,-80 161.5,-80 161.5,-92 161.5,-92 161.5,-98 155.5,-104 149.5,-104"/>
<text text-anchor="middle" x="119" y="-82.3" font-family="Times,serif" font-size="14.00">parenthesis</text>
</g>
<!-- punctuation&#45;&gt;parenthesis -->
<g id="edge14" class="edge"><title>punctuation&#45;&gt;parenthesis</title>
<path fill="none" stroke="black" stroke-width="2" d="M156.64,-139.697C150.767,-131.474 143.631,-121.483 137.158,-112.421"/>
<polygon fill="black" stroke="black" stroke-width="2" points="139.878,-110.207 131.217,-104.104 134.182,-114.276 139.878,-110.207"/>
</g>
<!-- delimiter -->
<g id="node19" class="node"><title>delimiter</title>
<path fill="none" stroke="black" stroke-width="2" d="M234,-104C234,-104 192,-104 192,-104 186,-104 180,-98 180,-92 180,-92 180,-80 180,-80 180,-74 186,-68 192,-68 192,-68 234,-68 234,-68 240,-68 246,-74 246,-80 246,-80 246,-92 246,-92 246,-98 240,-104 234,-104"/>
<text text-anchor="middle" x="213" y="-82.3" font-family="Times,serif" font-size="14.00">delimiter</text>
</g>
<!-- punctuation&#45;&gt;delimiter -->
<g id="edge15" class="edge"><title>punctuation&#45;&gt;delimiter</title>
<path fill="none" stroke="black" stroke-width="2" d="M179.876,-139.697C184.992,-131.559 191.195,-121.689 196.845,-112.701"/>
<polygon fill="black" stroke="black" stroke-width="2" points="199.89,-114.433 202.249,-104.104 193.964,-110.708 199.89,-114.433"/>
</g>
<!-- comment -->
<g id="node20" class="node"><title>comment</title>
<path fill="none" stroke="black" stroke-width="2" d="M435.5,-44C435.5,-44 392.5,-44 392.5,-44 386.5,-44 380.5,-38 380.5,-32 380.5,-32 380.5,-20 380.5,-20 380.5,-14 386.5,-8 392.5,-8 392.5,-8 435.5,-8 435.5,-8 441.5,-8 447.5,-14 447.5,-20 447.5,-20 447.5,-32 447.5,-32 447.5,-38 441.5,-44 435.5,-44"/>
<text text-anchor="middle" x="414" y="-22.3" font-family="Times,serif" font-size="14.00">comment</text>
</g>
<!-- identifier -->
<g id="node21" class="node"><title>identifier</title>
<path fill="none" stroke="black" stroke-width="2" d="M350.5,-44C350.5,-44 307.5,-44 307.5,-44 301.5,-44 295.5,-38 295.5,-32 295.5,-32 295.5,-20 295.5,-20 295.5,-14 301.5,-8 307.5,-8 307.5,-8 350.5,-8 350.5,-8 356.5,-8 362.5,-14 362.5,-20 362.5,-20 362.5,-32 362.5,-32 362.5,-38 356.5,-44 350.5,-44"/>
<text text-anchor="middle" x="329" y="-22.3" font-family="Times,serif" font-size="14.00">identifier</text>
</g>
<!-- comment&#45;&gt;identifier -->
<!-- meta -->
<g id="node22" class="node"><title>meta</title>
<path fill="none" stroke="black" stroke-width="2" d="M265,-44C265,-44 235,-44 235,-44 229,-44 223,-38 223,-32 223,-32 223,-20 223,-20 223,-14 229,-8 235,-8 235,-8 265,-8 265,-8 271,-8 277,-14 277,-20 277,-20 277,-32 277,-32 277,-38 271,-44 265,-44"/>
<text text-anchor="middle" x="250" y="-22.3" font-family="Times,serif" font-size="14.00">meta</text>
</g>
<!-- identifier&#45;&gt;meta -->
<!-- whitespace -->
<g id="node23" class="node"><title>whitespace</title>
<path fill="none" stroke="black" stroke-width="2" d="M193,-44C193,-44 135,-44 135,-44 129,-44 123,-38 123,-32 123,-32 123,-20 123,-20 123,-14 129,-8 135,-8 135,-8 193,-8 193,-8 199,-8 205,-14 205,-20 205,-20 205,-32 205,-32 205,-38 199,-44 193,-44"/>
<text text-anchor="middle" x="164" y="-22.3" font-family="Times,serif" font-size="14.00">whitespace</text>
</g>
<!-- meta&#45;&gt;whitespace -->
<!-- unknown -->
<g id="node24" class="node"><title>unknown</title>
<path fill="none" stroke="black" stroke-width="2" d="M93,-44C93,-44 51,-44 51,-44 45,-44 39,-38 39,-32 39,-32 39,-20 39,-20 39,-14 45,-8 51,-8 51,-8 93,-8 93,-8 99,-8 105,-14 105,-20 105,-20 105,-32 105,-32 105,-38 99,-44 93,-44"/>
<text text-anchor="middle" x="72" y="-22.3" font-family="Times,serif" font-size="14.00">unknown</text>
</g>
<!-- whitespace&#45;&gt;unknown -->
</g>
</svg>
